<?xml version="1.0" standalone="no"?>
<!DOCTYPE svg PUBLIC "-//W3C//DTD SVG 20010904//EN"
 "http://www.w3.org/TR/2001/REC-SVG-20010904/DTD/svg10.dtd">
<svg version="1.0" xmlns="http://www.w3.org/2000/svg"
 width="1024.000000pt" height="1024.000000pt" viewBox="0 0 1024.000000 1024.000000"
 preserveAspectRatio="xMidYMid meet">
<metadata>
Created by potrace 1.14, written by Peter Selinger 2001-2017
</metadata>
<g transform="translate(0.000000,1024.000000) scale(0.100000,-0.100000)"
fill="#000000" stroke="none">
<path d="M2 5143 c3 -4131 5 -5102 16 -5121 l13 -22 5104 0 5105 0 0 5120 0
5120 -5120 0 -5120 0 2 -5097z m5503 3071 c703 -78 1345 -393 1857 -911 588
-594 907 -1369 908 -2204 1 -792 -289 -1535 -827 -2124 -597 -652 -1418 -1015
-2297 -1015 -743 0 -1431 250 -2001 726 -635 530 -1023 1259 -1116 2094 -15
138 -15 485 0 630 76 730 385 1384 896 1895 145 146 266 250 400 346 638 456
1393 651 2180 563z"/>
<path d="M4955 8009 c-806 -53 -1540 -431 -2061 -1059 -464 -560 -703 -1299
-655 -2030 27 -425 122 -774 313 -1149 414 -817 1205 -1401 2103 -1550 279
-46 610 -52 875 -16 1251 171 2246 1124 2476 2370 70 376 55 855 -36 1215
-208 824 -732 1497 -1470 1889 -468 248 -1016 365 -1545 330z m400 -134 c118
-7 275 -30 405 -60 816 -187 1510 -741 1880 -1501 252 -517 337 -1102 244
-1674 -128 -783 -604 -1491 -1292 -1919 -423 -263 -944 -411 -1453 -411 -887
0 -1712 425 -2250 1160 -367 501 -560 1165 -519 1788 6 86 12 171 15 187 22
142 40 241 56 309 239 970 979 1745 1932 2022 208 60 387 90 612 103 127 8
186 7 370 -4z"/>
<path d="M4956 7658 c-506 -33 -1016 -235 -1421 -561 -260 -210 -523 -534
-669 -825 -264 -524 -345 -1082 -241 -1646 130 -703 561 -1332 1175 -1716 275
-172 645 -306 985 -357 170 -25 552 -25 720 1 404 61 827 233 1135 460 215
159 434 379 586 591 213 295 380 692 438 1040 41 245 48 526 21 759 -100 848
-632 1607 -1393 1986 -331 166 -622 244 -990 270 -167 11 -160 11 -346 -2z
m422 -62 c159 -16 180 -25 202 -92 14 -42 7 -65 -33 -110 l-30 -35 184 -185
c101 -101 188 -184 194 -184 5 0 85 75 177 166 l167 167 43 -5 c46 -6 144 -60
277 -153 99 -70 123 -118 85 -175 -9 -14 -97 -106 -195 -205 l-179 -180 188
-188 187 -187 180 181 c99 99 192 187 207 195 68 36 109 11 195 -123 38 -59
85 -134 103 -166 53 -95 50 -102 -145 -297 l-165 -165 190 -190 189 -189 28
26 c33 32 76 50 100 42 42 -13 66 -30 78 -54 35 -67 49 -442 25 -660 -15 -134
-35 -167 -106 -177 -37 -5 -45 -2 -83 33 l-42 38 -190 -190 -189 -189 164
-165 c165 -165 185 -194 172 -244 -13 -53 -180 -314 -218 -340 -12 -9 -40 -16
-62 -16 -38 0 -47 7 -233 192 -106 105 -196 189 -200 185 -5 -4 -90 -89 -190
-190 l-183 -182 193 -193 c191 -191 192 -192 192 -236 0 -51 -15 -71 -95 -126
-98 -67 -234 -146 -262 -153 -48 -12 -88 16 -248 177 l-155 156 -187 -187
-186 -186 28 -36 c39 -49 45 -81 25 -126 -24 -49 -52 -61 -183 -75 -127 -14
-502 -8 -587 10 -104 21 -139 113 -71 188 l35 38 -189 189 -190 190 -167 -167
c-104 -103 -178 -169 -196 -173 -35 -9 -94 19 -240 114 -138 91 -157 111 -157
169 l0 45 192 194 192 193 -184 185 c-102 102 -190 185 -197 185 -6 0 -85 -77
-175 -171 -169 -177 -208 -209 -251 -209 -50 0 -78 23 -142 119 -109 165 -140
229 -136 285 0 11 76 95 168 188 l168 168 -190 190 -189 190 -26 -24 c-54 -50
-95 -58 -146 -27 -40 25 -50 57 -64 201 -19 211 -5 533 25 607 30 71 114 87
171 32 18 -18 36 -31 38 -28 3 2 89 87 191 188 l186 185 -166 166 c-164 166
-171 175 -165 235 4 40 163 298 210 340 15 14 36 20 66 20 44 0 45 -1 236
-193 l193 -192 190 190 190 190 -193 193 c-185 186 -192 195 -192 233 0 22 7
49 15 61 19 27 123 102 238 169 144 85 135 88 339 -113 l169 -167 186 186 187
187 -21 23 c-48 53 -55 103 -23 155 24 39 59 50 200 62 162 13 301 12 458 -3z"/>
<path d="M5030 7365 c0 -15 -6 -38 -14 -53 -25 -47 -568 -580 -598 -587 -55
-14 -80 4 -255 177 l-172 171 -30 -13 c-68 -28 -68 -28 126 -223 100 -100 184
-192 188 -205 15 -51 -12 -84 -303 -375 -282 -282 -289 -287 -328 -287 -55 0
-85 24 -269 209 -82 83 -153 151 -156 151 -4 0 -17 -16 -29 -36 l-21 -37 176
-177 175 -177 0 -49 0 -49 -298 -297 c-267 -268 -301 -298 -330 -298 l-32 0 0
-116 c0 -76 3 -113 10 -109 32 20 86 -25 363 -303 l287 -288 0 -49 0 -49 -176
-177 -177 -177 23 -39 c13 -21 25 -40 27 -43 2 -2 86 78 186 177 183 183 210
202 261 189 33 -8 599 -579 608 -614 14 -51 -9 -84 -187 -262 -96 -96 -175
-177 -175 -181 0 -3 19 -16 41 -28 l41 -24 177 177 c176 176 176 176 221 176
l45 0 298 -298 c266 -267 297 -301 297 -330 l0 -32 113 0 114 0 1 29 c0 17 5
38 11 48 5 10 137 145 293 301 l284 282 49 0 49 0 177 -177 178 -176 42 27 41
28 -186 187 c-184 186 -186 188 -186 231 l0 44 292 293 c304 305 319 317 380
298 12 -4 105 -88 204 -187 l182 -179 21 34 c11 19 21 38 21 43 0 5 -66 74
-146 154 -175 174 -204 210 -204 259 0 33 19 54 298 334 264 264 303 299 333
302 l34 2 3 112 3 111 -38 0 c-35 0 -51 13 -325 287 -158 158 -292 299 -299
315 -25 60 -10 83 175 267 l174 174 -20 33 c-11 19 -24 37 -30 40 -5 4 -92
-75 -192 -175 -173 -171 -184 -181 -220 -181 -21 0 -53 9 -71 20 -18 11 -154
146 -304 299 -237 245 -271 284 -271 311 0 17 5 41 11 53 6 12 90 101 186 198
l175 176 -35 22 c-19 11 -40 21 -48 21 -7 0 -92 -79 -189 -175 -168 -167 -178
-175 -215 -175 -38 0 -49 9 -328 288 -276 274 -324 331 -311 366 5 14 -9 16
-110 16 l-116 0 0 -25z m153 -126 c31 -16 565 -549 583 -581 8 -15 14 -42 14
-60 0 -29 -29 -62 -297 -330 l-298 -298 -44 0 -45 0 -284 283 c-158 157 -290
296 -298 315 -8 18 -12 44 -8 60 7 29 562 596 599 612 28 12 53 12 78 -1z
m-456 -1041 c311 -311 320 -322 294 -386 -18 -42 -570 -589 -603 -597 -16 -4
-40 -4 -55 0 -34 8 -586 555 -604 597 -26 64 -17 75 294 386 l293 292 44 0 44
0 293 -292z m1510 -1 l293 -293 0 -49 0 -50 -298 -297 c-290 -290 -298 -298
-337 -298 -39 0 -47 8 -337 298 -286 285 -298 299 -298 335 0 21 6 50 14 65 8
15 140 152 293 305 l279 277 49 0 49 0 293 -293z m-2266 -753 c315 -315 322
-324 295 -387 -8 -18 -142 -159 -298 -314 -284 -283 -284 -283 -327 -283 -59
0 -72 11 -380 329 -282 291 -282 292 -247 359 8 15 142 154 298 310 275 273
285 282 323 282 38 0 48 -9 336 -296z m1511 -1 c302 -302 315 -319 292 -379
-10 -24 -530 -557 -574 -586 -14 -10 -43 -18 -65 -18 -38 0 -47 8 -327 287
-183 182 -292 299 -298 318 -5 16 -6 42 -2 57 8 29 500 542 567 591 33 24 47
28 79 24 36 -5 65 -31 328 -294z m1222 277 c51 -32 566 -566 577 -599 8 -23 7
-37 -5 -63 -9 -19 -143 -161 -299 -316 l-283 -282 -45 0 -44 0 -299 299 -299
300 6 47 c5 47 9 51 299 341 268 267 297 293 327 293 19 0 48 -9 65 -20z
m-1977 -1032 c319 -318 325 -326 289 -393 -28 -51 -566 -583 -598 -590 -16 -4
-40 -4 -55 0 -33 8 -572 539 -599 591 -34 63 -25 77 288 393 l287 291 48 0 47
0 293 -292z m1510 -1 l293 -293 0 -49 0 -49 -295 -296 -295 -295 -45 0 -45 0
-295 295 -295 296 0 49 0 49 293 293 292 293 50 0 50 0 292 -293z m-750 -759
l293 -294 0 -44 0 -45 -298 -297 -297 -298 -44 0 -45 0 -288 287 c-294 293
-315 319 -300 375 5 23 517 551 576 596 24 18 40 22 70 18 37 -4 64 -29 333
-298z"/>
<path d="M4950 6795 l-185 -185 190 -190 190 -190 187 187 188 188 -187 187
c-103 104 -190 188 -193 188 -3 0 -88 -83 -190 -185z"/>
<path d="M4200 6038 l-185 -188 188 -188 187 -187 187 187 187 187 -183 190
c-101 105 -186 190 -190 189 -3 0 -89 -86 -191 -190z"/>
<path d="M5705 6040 l-190 -190 186 -185 c102 -102 189 -185 195 -185 5 0 92
83 194 185 l185 185 -190 190 -190 190 -190 -190z"/>
<path d="M3447 5282 l-187 -187 188 -188 187 -187 190 190 190 190 -185 185
c-102 102 -187 185 -190 185 -3 0 -90 -84 -193 -188z"/>
<path d="M4950 5285 l-185 -185 190 -190 190 -190 187 187 188 188 -187 187
c-103 104 -190 188 -193 188 -3 0 -88 -83 -190 -185z"/>
<path d="M6457 5282 l-187 -187 188 -188 187 -187 190 190 190 190 -185 185
c-102 102 -187 185 -190 185 -3 0 -90 -84 -193 -188z"/>
<path d="M4200 4529 l-183 -191 186 -186 187 -187 185 185 c102 102 184 188
183 192 -5 13 -359 378 -367 378 -4 0 -89 -86 -191 -191z"/>
<path d="M5705 4530 l-190 -190 185 -185 c102 -102 189 -185 195 -185 6 0 93
83 195 185 l185 185 -190 190 -190 190 -190 -190z"/>
<path d="M4950 3775 l-185 -185 190 -190 190 -190 187 187 188 188 -187 187
c-103 104 -190 188 -193 188 -3 0 -88 -83 -190 -185z"/>
</g>
</svg>
